<svg width="1267" height="108" viewBox="0 0 1267 108" fill="none" xmlns="http://www.w3.org/2000/svg">
<path fill-rule="evenodd" clip-rule="evenodd" d="M0 106.242V1.75768H25.5768V106.242H0ZM69.0171 106.242V23.0452H36.3411V1.75768H127.27V23.0452H94.5939V106.242H69.0171ZM93.6214 22.0687H126.297V2.73417H37.3136V22.0687H69.9896V105.266H93.6214V22.0687ZM164.228 104.128L164.22 104.125C157.399 101.444 151.408 97.6675 146.257 92.7939L146.254 92.7906L146.25 92.7873C141.197 87.9122 137.234 82.1911 134.364 75.6315L134.361 75.6258L134.359 75.6201C131.58 69.0428 130.197 61.8319 130.197 54C130.197 46.1681 131.58 38.9572 134.359 32.3799L134.361 32.3742L134.364 32.3685C137.236 25.8048 141.25 20.0816 146.403 15.2061C151.558 10.3289 157.601 6.60005 164.523 4.01784C171.453 1.33478 179.059 0 187.331 0C196.484 0 204.734 1.53176 212.066 4.61574C219.493 7.69861 225.746 12.1805 230.808 18.0612L231.424 18.7763L214.857 34.1317L214.197 33.4339C210.581 29.6127 206.654 26.8156 202.416 25.0189L202.407 25.0154L202.399 25.0117C198.157 23.1183 193.527 22.1664 188.498 22.1664C183.641 22.1664 179.238 22.9312 175.278 24.446C171.314 25.9624 167.88 28.1367 164.965 30.9678C162.147 33.7988 159.935 37.1512 158.329 41.0351C156.825 44.9088 156.065 49.2264 156.065 54C156.065 58.6734 156.824 62.9425 158.329 66.8184C159.935 70.7028 162.148 74.1069 164.971 77.0382C167.887 79.8692 171.273 82.0412 175.136 83.5553C179.097 85.0701 183.451 85.8336 188.207 85.8336C192.769 85.8336 197.186 85.1184 201.46 83.6884C202.857 83.2002 204.242 82.6081 205.614 81.9113V51.4123H229.149V93.6494L229.554 94.1669L229.149 94.4739V95.1122L228.438 95.0108C222.867 99.1664 216.404 102.356 209.06 104.588C201.678 106.861 194.288 108 186.894 108C178.719 108 171.163 106.714 164.236 104.131L164.228 104.128ZM227.056 94.8139C221.767 98.6115 215.673 101.558 208.775 103.655C201.481 105.901 194.187 107.024 186.894 107.024C178.822 107.024 171.382 105.754 164.575 103.215C157.865 100.579 151.981 96.868 146.924 92.0832C141.964 87.2984 138.074 81.6835 135.254 75.2387C132.531 68.7938 131.169 61.7143 131.169 54C131.169 46.2857 132.531 39.2061 135.254 32.7613C138.074 26.3165 142.013 20.7016 147.07 15.9168C152.127 11.132 158.059 7.47016 164.867 4.93128C171.674 2.29475 179.162 0.976492 187.331 0.976492C196.376 0.976492 204.496 2.49005 211.692 5.51717C218.986 8.54425 225.113 12.9384 230.072 18.6995C230.072 18.6994 230.073 18.6996 230.072 18.6995L214.902 32.7613C211.206 28.8553 207.17 25.9747 202.794 24.1193C198.418 22.1664 193.653 21.1899 188.498 21.1899C183.539 21.1899 179.016 21.9711 174.932 23.5335C170.847 25.0958 167.298 27.3418 164.283 30.2712C161.366 33.2007 159.08 36.6673 157.427 40.6709C155.871 44.6745 155.093 49.1175 155.093 54C155.093 58.7848 155.871 63.179 157.427 67.1826C159.08 71.1863 161.366 74.7016 164.283 77.7287C167.298 80.6582 170.799 82.9042 174.786 84.4665C178.871 86.0289 183.344 86.8101 188.207 86.8101C192.875 86.8101 197.397 86.0778 201.773 84.613C203.066 84.1616 204.346 83.6245 205.614 83.0018C205.939 82.8423 206.263 82.6771 206.587 82.5063V52.3888H228.176V93.9873C227.918 94.1832 227.657 94.377 227.394 94.5687C227.282 94.6508 227.169 94.7326 227.056 94.8139ZM249.156 106.242V1.75768H274.733V106.242H249.156ZM297.021 106.242V1.75768H342.194C351.437 1.75768 359.457 3.28748 366.223 6.38379C372.99 9.38239 378.248 13.7477 381.958 19.4864C385.674 25.2351 387.512 32.0669 387.512 39.9385C387.512 47.7152 385.673 54.4974 381.958 60.2441L381.956 60.2475L381.954 60.2508C378.403 65.6463 373.438 69.8279 367.093 72.8038L390.299 106.242H362.397L342.797 77.6778C342.597 77.6792 342.395 77.6799 342.194 77.6799H322.598V106.242H297.021ZM321.625 76.7034H342.194C342.566 76.7034 342.936 76.701 343.305 76.6961L362.908 105.266H388.436L365.625 72.3973C365.692 72.3681 365.759 72.3387 365.825 72.3092C366.062 72.2046 366.296 72.0983 366.528 71.9905C372.801 69.0782 377.673 64.9855 381.142 59.7125C384.741 54.1465 386.54 47.5551 386.54 39.9385C386.54 32.2242 384.741 25.5841 381.142 20.0181C377.544 14.4521 372.438 10.2043 365.825 7.27486C359.212 4.24774 351.335 2.73417 342.194 2.73417H297.994V105.266H321.625V76.7034ZM340.881 57.8083C348.175 57.8083 353.621 56.2459 357.219 53.1212C360.817 49.8987 362.616 45.5045 362.616 39.9385C362.616 34.2749 360.817 29.8806 357.219 26.7559C353.621 23.6311 348.175 22.0687 340.881 22.0687H321.625V57.8083H340.881ZM322.598 56.8318H340.881C348.056 56.8318 353.228 55.2921 356.577 52.3877C359.933 49.3796 361.644 45.2694 361.644 39.9385C361.644 34.5005 359.927 30.3989 356.583 27.4945C353.234 24.5867 348.06 23.0452 340.881 23.0452H322.598V56.8318ZM404.291 106.242V1.75768H429.867V84.9548H481.069V106.242H404.291ZM428.895 85.9313V2.73417H405.263V105.266H480.097V85.9313H428.895ZM502.666 104.738L502.661 104.737C495.097 102.468 488.95 99.5425 484.259 95.9343L483.647 95.4636L492.473 75.8052L493.437 76.4935C497.724 79.5545 502.789 82.1015 508.644 84.1262C514.578 86.0469 520.552 87.0054 526.571 87.0054C531.186 87.0054 534.818 86.5699 537.506 85.7338C540.316 84.7917 542.267 83.5557 543.471 82.0881C544.689 80.6027 545.291 78.9179 545.291 76.9964C545.291 74.5638 544.362 72.7136 542.483 71.3413L542.471 71.3329L542.46 71.3242C540.448 69.763 537.753 68.4912 534.334 67.5376L534.322 67.5343L534.31 67.5306C530.843 66.467 526.983 65.4977 522.729 64.624L522.716 64.6213L522.704 64.6184C518.496 63.6358 514.24 62.457 509.938 61.0824L509.932 61.0804C505.683 59.6914 501.772 57.9028 498.201 55.7121C494.573 53.4854 491.598 50.5478 489.282 46.9091L489.277 46.9009L489.272 46.8926C487.013 43.1814 485.92 38.4986 485.92 32.9078C485.92 26.8643 487.528 21.356 490.746 16.4082L490.749 16.4042C494.077 11.3408 498.999 7.37443 505.455 4.48146C512.037 1.47746 520.207 0 529.926 0C536.421 0 542.819 0.790386 549.118 2.37097C555.431 3.85733 561.027 6.14119 565.893 9.23265L566.581 9.66919L558.562 29.4756L557.597 28.922C552.897 26.2251 548.21 24.258 543.535 23.0126L543.526 23.0102L543.517 23.0076C538.831 21.6634 534.253 20.9946 529.78 20.9946C525.275 20.9946 521.655 21.5254 518.882 22.5461C516.071 23.5813 514.174 24.9042 513.063 26.4488L513.056 26.4596L513.047 26.4702C511.923 27.9468 511.351 29.6874 511.351 31.736C511.351 34.0551 512.269 35.9191 514.171 37.3992C516.187 38.8689 518.887 40.0939 522.309 41.0483C525.793 42.0202 529.62 42.9931 533.789 43.9667C538.089 44.9479 542.34 46.0763 546.542 47.3518C550.894 48.6432 554.862 50.3849 558.441 52.5809C562.07 54.808 564.999 57.7478 567.219 61.391C569.577 65.1015 570.722 69.7381 570.722 75.2387C570.722 81.1946 569.06 86.6575 565.742 91.6033C562.412 96.5683 557.442 100.53 550.898 103.518C544.409 106.524 536.237 108 526.425 108C518.17 108 510.251 106.914 502.672 104.74L502.666 104.738ZM550.494 102.629C556.913 99.6998 561.727 95.8427 564.936 91.0579C568.145 86.273 569.75 81 569.75 75.2387C569.75 69.868 568.631 65.425 566.395 61.9096C564.255 58.3942 561.435 55.5624 557.934 53.4141C554.433 51.2658 550.543 49.557 546.264 48.2875C542.082 47.0181 537.852 45.8951 533.573 44.9186C529.391 43.9421 525.55 42.9656 522.049 41.9891C518.548 41.0127 515.727 39.7432 513.588 38.1808C511.448 36.5208 510.379 34.3725 510.379 31.736C510.379 29.49 511.011 27.5371 512.275 25.877C513.539 24.1193 515.63 22.7034 518.548 21.6293C521.465 20.5552 525.209 20.0181 529.78 20.0181C534.351 20.0181 539.019 20.7016 543.784 22.0687C548.264 23.2623 552.745 25.1033 557.225 27.5917C557.51 27.7499 557.795 27.9107 558.08 28.0741L565.373 10.0579C560.608 7.03074 555.114 4.7848 548.89 3.32007C542.666 1.75768 536.344 0.976492 529.926 0.976492C520.298 0.976492 512.275 2.44123 505.856 5.3707C499.535 8.20253 494.77 12.0597 491.561 16.9421C488.449 21.7269 486.893 27.0488 486.893 32.9078C486.893 38.3761 487.962 42.868 490.102 46.3834C492.339 49.8987 495.208 52.7306 498.709 54.8788C502.21 57.0271 506.051 58.7848 510.233 60.1519C514.512 61.519 518.742 62.6908 522.924 63.6673C527.203 64.5461 531.093 65.5226 534.594 66.5967C538.095 67.5732 540.915 68.8915 543.055 70.5515C545.194 72.1139 546.264 74.2622 546.264 76.9964C546.264 79.1447 545.583 81.0488 544.222 82.7089C542.86 84.3689 540.721 85.6872 537.803 86.6636C534.983 87.5425 531.239 87.9819 526.571 87.9819C520.444 87.9819 514.366 87.0054 508.336 85.0524C502.767 83.1273 497.883 80.7287 493.685 77.8568C493.412 77.6697 493.141 77.4805 492.874 77.2893L484.85 95.1591C489.421 98.6745 495.451 101.555 502.939 103.801C510.427 105.949 518.256 107.024 526.425 107.024C536.15 107.024 544.173 105.559 550.494 102.629ZM637.002 104.738L636.997 104.737C629.433 102.468 623.287 99.5425 618.595 95.9343L617.983 95.4636L626.809 75.8052L627.773 76.4935C632.06 79.5545 637.125 82.1015 642.981 84.1262C648.914 86.0469 654.888 87.0054 660.907 87.0054C665.522 87.0054 669.154 86.5699 671.842 85.7338C674.652 84.7917 676.603 83.5557 677.807 82.0881C679.025 80.6027 679.627 78.9179 679.627 76.9964C679.627 74.5638 678.698 72.7136 676.819 71.3413L676.807 71.3329L676.796 71.3242C674.784 69.763 672.089 68.4912 668.67 67.5376L668.658 67.5343L668.646 67.5306C665.179 66.467 661.319 65.4977 657.065 64.624L657.052 64.6213L657.04 64.6184C652.832 63.6358 648.576 62.457 644.274 61.0824L644.268 61.0804C640.019 59.6914 636.108 57.9028 632.538 55.7121C628.909 53.4854 625.934 50.5478 623.619 46.9091L623.613 46.9009L623.608 46.8926C621.35 43.1814 620.256 38.4986 620.256 32.9078C620.256 26.8643 621.865 21.356 625.083 16.4082L625.085 16.4042C628.413 11.3408 633.335 7.37443 639.791 4.48146C646.373 1.47746 654.543 0 664.262 0C670.758 0 677.156 0.790386 683.455 2.37097C689.767 3.85733 695.363 6.14119 700.23 9.23265L700.917 9.66919L692.898 29.4756L691.933 28.922C687.233 26.2251 682.546 24.258 677.871 23.0126L677.862 23.0102L677.853 23.0076C673.167 21.6634 668.589 20.9946 664.116 20.9946C659.611 20.9946 655.991 21.5254 653.218 22.5461C650.407 23.5813 648.51 24.9042 647.399 26.4488L647.392 26.4596L647.384 26.4702C646.259 27.9468 645.687 29.6874 645.687 31.736C645.687 34.0551 646.605 35.9191 648.507 37.3992C650.523 38.8689 653.223 40.0939 656.645 41.0483C660.13 42.0202 663.956 42.9931 668.126 43.9667C672.425 44.9479 676.676 46.0763 680.878 47.3518C685.23 48.6432 689.198 50.3849 692.777 52.5809C696.407 54.808 699.336 57.7478 701.555 61.391C703.913 65.1015 705.058 69.7381 705.058 75.2387C705.058 81.1946 703.396 86.6575 700.079 91.6033C696.748 96.5683 691.779 100.53 685.234 103.518C678.746 106.524 670.573 108 660.761 108C652.506 108 644.587 106.914 637.008 104.74L637.002 104.738ZM684.83 102.629C691.249 99.6998 696.063 95.8427 699.272 91.0579C702.481 86.273 704.086 81 704.086 75.2387C704.086 69.868 702.967 65.425 700.731 61.9096C698.591 58.3942 695.771 55.5624 692.27 53.4141C688.769 51.2658 684.879 49.557 680.6 48.2875C676.418 47.0181 672.188 45.8951 667.909 44.9186C663.727 43.9421 659.886 42.9656 656.385 41.9891C652.884 41.0127 650.063 39.7432 647.924 38.1808C645.784 36.5208 644.715 34.3725 644.715 31.736C644.715 29.49 645.347 27.5371 646.611 25.877C647.875 24.1193 649.966 22.7034 652.884 21.6293C655.801 20.5552 659.545 20.0181 664.116 20.0181C668.687 20.0181 673.355 20.7016 678.12 22.0687C682.6 23.2623 687.081 25.1033 691.561 27.5917C691.846 27.7499 692.131 27.9107 692.416 28.0741L699.71 10.0579C694.944 7.03074 689.45 4.7848 683.226 3.32007C677.002 1.75768 670.68 0.976492 664.262 0.976492C654.634 0.976492 646.611 2.44123 640.193 5.3707C633.871 8.20253 629.106 12.0597 625.897 16.9421C622.785 21.7269 621.229 27.0488 621.229 32.9078C621.229 38.3761 622.299 42.868 624.438 46.3834C626.675 49.8987 629.544 52.7306 633.045 54.8788C636.546 57.0271 640.387 58.7848 644.569 60.1519C648.848 61.519 653.078 62.6908 657.26 63.6673C661.539 64.5461 665.429 65.5226 668.93 66.5967C672.431 67.5732 675.251 68.8915 677.391 70.5515C679.53 72.1139 680.6 74.2622 680.6 76.9964C680.6 79.1447 679.919 81.0488 678.558 82.7089C677.196 84.3689 675.057 85.6872 672.139 86.6636C669.319 87.5425 665.575 87.9819 660.907 87.9819C654.78 87.9819 648.702 87.0054 642.672 85.0524C637.103 83.1273 632.22 80.7287 628.022 77.8568C627.748 77.6697 627.477 77.4805 627.21 77.2893L619.187 95.1591C623.757 98.6745 629.787 101.555 637.275 103.801C644.763 105.949 652.592 107.024 660.761 107.024C670.486 107.024 678.509 105.559 684.83 102.629ZM746.728 104.128L746.72 104.125C739.897 101.444 733.952 97.6651 728.896 92.7873C723.842 87.9122 719.88 82.1911 717.009 75.6315L717.007 75.6258L717.004 75.6201C714.225 69.0428 712.842 61.8319 712.842 54C712.842 46.1681 714.225 38.9572 717.004 32.3799L717.007 32.3742L717.009 32.3685C719.88 25.8089 723.842 20.0878 728.896 15.2127L728.899 15.2094L728.903 15.2061C734.055 10.3312 740.048 6.6024 746.872 4.01957C753.705 1.33574 761.167 0 769.248 0C778.21 0 786.318 1.58227 793.555 4.7665C800.892 7.85409 807.049 12.4404 812.012 18.5202L812.593 19.2323L796.016 34.5973L795.358 33.845C791.936 29.932 788.154 27.0435 784.016 25.1548L784.008 25.151L784 25.1471C779.86 23.1633 775.336 22.1664 770.415 22.1664C765.757 22.1664 761.502 22.9296 757.639 24.4431C753.773 25.9583 750.435 28.1313 747.616 30.9617C744.795 33.7944 742.581 37.1491 740.974 41.0363C739.471 44.9097 738.711 49.2269 738.711 54C738.711 58.7731 739.471 63.0902 740.974 66.9637C742.581 70.8509 744.795 74.2056 747.616 77.0383C750.435 79.8687 753.773 82.0417 757.639 83.5569C761.502 85.0704 765.757 85.8336 770.415 85.8336C775.34 85.8336 779.867 84.8839 784.008 82.9952C788.146 81.0106 791.928 78.0262 795.35 74.0173L796.007 73.2481L812.593 88.6213L812.012 89.3333C807.049 95.4127 800.893 100.047 793.558 103.232C786.319 106.418 778.161 108 769.102 108C761.119 108 753.661 106.713 746.736 104.131L746.728 104.128ZM793.171 102.336C800.368 99.2116 806.397 94.6709 811.26 88.7143L796.089 74.6528C795.876 74.9015 795.663 75.1464 795.447 75.3875C792.114 79.1233 788.438 81.9544 784.419 83.8806C780.14 85.8336 775.472 86.8101 770.415 86.8101C765.649 86.8101 761.273 86.0289 757.286 84.4665C753.299 82.9042 749.846 80.6582 746.929 77.7287C744.011 74.7993 741.726 71.3327 740.073 67.3291C738.517 63.3255 737.739 58.8825 737.739 54C737.739 49.1175 738.517 44.6745 740.073 40.6709C741.726 36.6673 744.011 33.2007 746.929 30.2712C749.846 27.3418 753.299 25.0958 757.286 23.5335C761.273 21.9711 765.649 21.1899 770.415 21.1899C775.472 21.1899 780.14 22.2152 784.419 24.2658C788.435 26.0988 792.108 28.8349 795.439 32.4742C795.657 32.7125 795.873 32.9547 796.089 33.2007L811.26 19.1392C806.397 13.1826 800.368 8.69077 793.171 5.66366C786.072 2.53888 778.097 0.976492 769.248 0.976492C761.273 0.976492 753.931 2.29475 747.22 4.93128C740.51 7.47016 734.627 11.132 729.57 15.9168C724.61 20.7016 720.72 26.3165 717.9 32.7613C715.177 39.2061 713.815 46.2857 713.815 54C713.815 61.7143 715.177 68.7938 717.9 75.2387C720.72 81.6835 724.61 87.2984 729.57 92.0832C734.529 96.868 740.364 100.579 747.075 103.215C753.882 105.754 761.224 107.024 769.102 107.024C778.049 107.024 786.072 105.461 793.171 102.336ZM896.266 1.75768H921.842V106.242H896.266V64.2043H851.822V106.242H826.246V1.75768H851.822V42.1844H896.266V1.75768ZM897.238 43.1609H850.85V2.73417H827.218V105.266H850.85V63.2278H897.238V105.266H920.87V2.73417H897.238V43.1609ZM971.816 103.981L971.812 103.98C964.893 101.3 958.852 97.5233 953.698 92.6474L953.695 92.6441L953.692 92.6409C948.638 87.7658 944.675 82.0446 941.805 75.485L941.802 75.4793L941.8 75.4736C939.022 68.8979 937.638 61.736 937.638 54C937.638 46.2639 939.022 39.1021 941.8 32.5264L941.802 32.5207L941.805 32.515C944.677 25.9513 948.691 20.2281 953.844 15.3526C958.998 10.4767 965.039 6.69996 971.958 4.02021C978.887 1.33659 986.398 0 994.481 0C1002.66 0 1010.17 1.33564 1017.01 4.02081C1023.93 6.70111 1029.92 10.4794 1034.98 15.3591C1040.13 20.2333 1044.14 25.954 1047.01 32.515C1049.89 38.9992 1051.32 46.1658 1051.32 54C1051.32 61.7408 1049.89 68.9534 1047.01 75.6266L1047.01 75.6315C1044.14 82.1952 1040.12 87.9184 1034.97 92.7939L1034.35 92.1364L1034.97 92.7943C1029.91 97.5735 1023.92 101.3 1017.01 103.979C1010.17 106.664 1002.71 108 994.627 108C986.448 108 978.841 106.664 971.816 103.981ZM1016.65 103.069C1023.46 100.432 1029.35 96.7703 1034.3 92.0832C1039.36 87.2984 1043.3 81.6835 1046.12 75.2387C1048.94 68.6962 1050.35 61.6166 1050.35 54C1050.35 46.2857 1048.94 39.255 1046.12 32.9078C1043.3 26.4629 1039.36 20.8481 1034.3 16.0633C1029.35 11.2785 1023.46 7.56781 1016.65 4.93128C1009.94 2.29475 1002.55 0.976492 994.481 0.976492C986.506 0.976492 979.115 2.29475 972.308 4.93128C965.5 7.56781 959.568 11.2785 954.511 16.0633C949.454 20.8481 945.516 26.4629 942.695 32.9078C939.972 39.3526 938.611 46.3834 938.611 54C938.611 61.6166 939.972 68.6474 942.695 75.0922C945.516 81.5371 949.406 87.1519 954.365 91.9367C959.422 96.7215 965.355 100.432 972.162 103.069C979.067 105.705 986.555 107.024 994.627 107.024C1002.6 107.024 1009.94 105.705 1016.65 103.069ZM1006.66 83.5615L1006.67 83.5599C1010.43 82.0458 1013.73 79.8728 1016.55 77.0383C1019.37 74.2078 1021.53 70.8568 1023.04 66.9741L1023.05 66.9646L1023.05 66.9551C1024.65 63.0841 1025.46 58.7703 1025.46 54C1025.46 49.2297 1024.65 44.9159 1023.05 41.0449L1023.05 41.0354L1023.04 41.0259C1021.53 37.1432 1019.37 33.7922 1016.55 30.9617L1016.54 30.9559L1016.54 30.9499C1013.82 28.1228 1010.58 25.953 1006.81 24.4401C1003.05 22.9279 998.939 22.1664 994.481 22.1664C990.024 22.1664 985.919 22.9273 982.156 24.4383C978.484 25.9512 975.238 28.124 972.412 30.9617C969.591 33.7944 967.377 37.1491 965.77 41.0363C964.267 44.9097 963.507 49.2269 963.507 54C963.507 58.6715 964.265 62.9911 965.772 66.9681C967.38 70.857 969.547 74.2117 972.271 77.0429C975.093 79.8751 978.383 82.0467 982.151 83.5599C985.916 85.0721 990.023 85.8336 994.481 85.8336C998.94 85.8336 1002.99 85.072 1006.66 83.5631L1006.66 83.5615ZM964.868 67.3291C963.312 63.2278 962.534 58.7848 962.534 54C962.534 49.1175 963.312 44.6745 964.868 40.6709C966.522 36.6673 968.807 33.2007 971.724 30.2712C974.642 27.3418 977.997 25.0958 981.79 23.5335C985.68 21.9711 989.91 21.1899 994.481 21.1899C999.052 21.1899 1003.28 21.9711 1007.17 23.5335C1011.06 25.0958 1014.42 27.3418 1017.24 30.2712C1020.15 33.2007 1022.39 36.6673 1023.95 40.6709C1025.6 44.6745 1026.43 49.1175 1026.43 54C1026.43 58.8825 1025.6 63.3255 1023.95 67.3291C1022.39 71.3327 1020.15 74.7993 1017.24 77.7287C1014.32 80.6582 1010.92 82.9042 1007.03 84.4665C1003.23 86.0289 999.052 86.8101 994.481 86.8101C989.91 86.8101 985.68 86.0289 981.79 84.4665C977.9 82.9042 974.496 80.6582 971.579 77.7287C968.758 74.7993 966.522 71.3327 964.868 67.3291ZM1094.9 103.981L1094.89 103.98C1087.98 101.3 1081.93 97.5233 1076.78 92.6474L1076.78 92.6441L1076.77 92.6409C1071.72 87.7658 1067.76 82.0446 1064.89 75.485L1064.88 75.4793L1064.88 75.4736C1062.1 68.8979 1060.72 61.736 1060.72 54C1060.72 46.2639 1062.1 39.1021 1064.88 32.5264L1064.88 32.5207L1064.89 32.515C1067.76 25.9513 1071.77 20.2281 1076.93 15.3526C1082.08 10.4767 1088.12 6.69996 1095.04 4.02021C1101.97 1.33659 1109.48 0 1117.56 0C1125.74 0 1133.25 1.33564 1140.09 4.02081C1147.01 6.70111 1153 10.4794 1158.06 15.3591C1163.21 20.2333 1167.22 25.954 1170.09 32.515C1172.97 38.9992 1174.41 46.1658 1174.41 54C1174.41 61.7408 1172.97 68.9534 1170.1 75.6266L1170.09 75.6315C1167.22 82.1952 1163.21 87.9184 1158.05 92.7939L1157.44 92.1364L1158.05 92.7943C1153 97.5735 1147 101.3 1140.09 103.979C1133.25 106.664 1125.79 108 1117.71 108C1109.53 108 1101.92 106.664 1094.9 103.981ZM1139.74 103.069C1146.54 100.432 1152.43 96.7703 1157.39 92.0832C1162.44 87.2984 1166.38 81.6835 1169.2 75.2387C1172.02 68.6962 1173.43 61.6166 1173.43 54C1173.43 46.2857 1172.02 39.255 1169.2 32.9078C1166.38 26.4629 1162.44 20.8481 1157.39 16.0633C1152.43 11.2785 1146.54 7.56781 1139.74 4.93128C1133.03 2.29475 1125.63 0.976492 1117.56 0.976492C1109.59 0.976492 1102.2 2.29475 1095.39 4.93128C1088.58 7.56781 1082.65 11.2785 1077.59 16.0633C1072.54 20.8481 1068.6 26.4629 1065.78 32.9078C1063.05 39.3526 1061.69 46.3834 1061.69 54C1061.69 61.6166 1063.05 68.6474 1065.78 75.0922C1068.6 81.5371 1072.49 87.1519 1077.45 91.9367C1082.5 96.7215 1088.44 100.432 1095.24 103.069C1102.15 105.705 1109.64 107.024 1117.71 107.024C1125.68 107.024 1133.03 105.705 1139.74 103.069ZM1129.74 83.5615L1129.75 83.5599C1133.52 82.0458 1136.81 79.8728 1139.63 77.0383C1142.45 74.2078 1144.61 70.8568 1146.12 66.9741L1146.13 66.9646L1146.13 66.9551C1147.73 63.0841 1148.54 58.7703 1148.54 54C1148.54 49.2297 1147.73 44.9159 1146.13 41.0449L1146.13 41.0354L1146.12 41.0259C1144.61 37.1432 1142.45 33.7922 1139.63 30.9617L1139.63 30.9559L1139.62 30.9499C1136.9 28.1228 1133.66 25.953 1129.89 24.4401C1126.13 22.9279 1122.02 22.1664 1117.56 22.1664C1113.11 22.1664 1109 22.9273 1105.24 24.4383C1101.57 25.9512 1098.32 28.124 1095.49 30.9617C1092.67 33.7944 1090.46 37.1491 1088.85 41.0363C1087.35 44.9097 1086.59 49.2269 1086.59 54C1086.59 58.6715 1087.35 62.9911 1088.85 66.9681C1090.46 70.857 1092.63 74.2117 1095.35 77.0429C1098.17 79.8751 1101.47 82.0467 1105.23 83.5599C1109 85.0721 1113.1 85.8336 1117.56 85.8336C1122.02 85.8336 1126.08 85.072 1129.74 83.5631L1129.74 83.5615ZM1087.95 67.3291C1086.39 63.2278 1085.62 58.7848 1085.62 54C1085.62 49.1175 1086.39 44.6745 1087.95 40.6709C1089.6 36.6673 1091.89 33.2007 1094.81 30.2712C1097.72 27.3418 1101.08 25.0958 1104.87 23.5335C1108.76 21.9711 1112.99 21.1899 1117.56 21.1899C1122.13 21.1899 1126.36 21.9711 1130.25 23.5335C1134.14 25.0958 1137.5 27.3418 1140.32 30.2712C1143.24 33.2007 1145.47 36.6673 1147.03 40.6709C1148.68 44.6745 1149.51 49.1175 1149.51 54C1149.51 58.8825 1148.68 63.3255 1147.03 67.3291C1145.47 71.3327 1143.24 74.7993 1140.32 77.7287C1137.4 80.6582 1134 82.9042 1130.11 84.4665C1126.32 86.0289 1122.13 86.8101 1117.56 86.8101C1112.99 86.8101 1108.76 86.0289 1104.87 84.4665C1100.98 82.9042 1097.58 80.6582 1094.66 77.7287C1091.84 74.7993 1089.6 71.3327 1087.95 67.3291ZM1190.22 106.242V1.75768H1215.8V84.9548H1267V106.242H1190.22ZM1214.83 85.9313V2.73417H1191.19V105.266H1266.03V85.9313H1214.83ZM0.972501 105.266H24.6043V2.73417H0.972501V105.266ZM250.128 105.266H273.76V2.73417H250.128V105.266Z" fill="white" fill-opacity="0.6"/>
</svg>
